<?xml version="1.0" encoding="UTF-8"?>
<svg xmlns="http://www.w3.org/2000/svg" xmlns:xlink="http://www.w3.org/1999/xlink" viewBox="0 0 30 30" width="30px" height="30px">
<g id="surface85500332">
<path style=" stroke:none;fill-rule:nonzero;fill:rgb(0%,0%,0%);fill-opacity:1;" d="M 24.101562 9.355469 C 23.429688 9.652344 22.710938 9.855469 21.957031 9.945312 C 22.726562 9.480469 23.316406 8.75 23.597656 7.878906 C 22.875 8.304688 22.078125 8.617188 21.226562 8.785156 C 20.542969 8.058594 19.574219 7.605469 18.5 7.605469 C 16.4375 7.605469 14.765625 9.277344 14.765625 11.339844 C 14.765625 11.632812 14.800781 11.917969 14.863281 12.191406 C 11.757812 12.035156 9.007812 10.546875 7.167969 8.289062 C 6.84375 8.839844 6.660156 9.480469 6.660156 10.164062 C 6.660156 11.460938 7.320312 12.605469 8.320312 13.273438 C 7.710938 13.253906 7.132812 13.085938 6.628906 12.804688 C 6.628906 12.824219 6.628906 12.835938 6.628906 12.851562 C 6.628906 14.664062 7.917969 16.171875 9.625 16.515625 C 9.3125 16.597656 8.984375 16.644531 8.640625 16.644531 C 8.402344 16.644531 8.167969 16.621094 7.941406 16.578125 C 8.414062 18.0625 9.792969 19.140625 11.429688 19.171875 C 10.152344 20.171875 8.539062 20.769531 6.789062 20.769531 C 6.488281 20.769531 6.191406 20.753906 5.898438 20.71875 C 7.550781 21.777344 9.515625 22.394531 11.625 22.394531 C 18.492188 22.394531 22.246094 16.707031 22.246094 11.773438 C 22.246094 11.609375 22.242188 11.449219 22.234375 11.289062 C 22.964844 10.761719 23.597656 10.105469 24.101562 9.355469 Z M 24.101562 9.355469 "/>
</g>
</svg>
